<svg id="visual" viewBox="0 0 675 900" width="675" height="900" xmlns="http://www.w3.org/2000/svg" xmlns:xlink="http://www.w3.org/1999/xlink" version="1.1"><g stroke-width="1" stroke-linejoin="bevel"><path d="M335.5 456L220 453L328.5 553.5Z" fill="#3e0b4c" stroke="#3e0b4c"></path><path d="M220 453L216 553.5L328.5 553.5Z" fill="#470c57" stroke="#470c57"></path><path d="M108.5 338.5L118.5 444L220 453Z" fill="#550e67" stroke="#550e67"></path><path d="M220 453L118.5 444L216 553.5Z" fill="#590e6d" stroke="#590e6d"></path><path d="M118.5 444L120.5 567.5L216 553.5Z" fill="#470c57" stroke="#470c57"></path><path d="M216 553.5L329.5 670L328.5 553.5Z" fill="#5e0f72" stroke="#5e0f72"></path><path d="M335.5 456L328.5 337.5L220 453Z" fill="#350a42" stroke="#350a42"></path><path d="M222 684L329.5 670L216 553.5Z" fill="#550e67" stroke="#550e67"></path><path d="M328.5 553.5L443 570.5L335.5 456Z" fill="#350a42" stroke="#350a42"></path><path d="M328.5 337.5L233 327.5L220 453Z" fill="#350a42" stroke="#350a42"></path><path d="M329.5 670L443 570.5L328.5 553.5Z" fill="#420b52" stroke="#420b52"></path><path d="M335.5 456L455 451L328.5 337.5Z" fill="#420b52" stroke="#420b52"></path><path d="M443 570.5L455 451L335.5 456Z" fill="#470c57" stroke="#470c57"></path><path d="M120.5 567.5L222 684L216 553.5Z" fill="#350a42" stroke="#350a42"></path><path d="M233 327.5L108.5 338.5L220 453Z" fill="#550e67" stroke="#550e67"></path><path d="M0 567.5L106.5 680L120.5 567.5Z" fill="#350a42" stroke="#350a42"></path><path d="M455 451L452 329.5L328.5 337.5Z" fill="#3e0b4c" stroke="#3e0b4c"></path><path d="M339.5 229L218 230L233 327.5Z" fill="#420b52" stroke="#420b52"></path><path d="M329.5 670L454 670L443 570.5Z" fill="#3e0b4c" stroke="#3e0b4c"></path><path d="M443 570.5L561.5 557.5L455 451Z" fill="#3a0a47" stroke="#3a0a47"></path><path d="M338.5 790.5L454 670L329.5 670Z" fill="#3a0a47" stroke="#3a0a47"></path><path d="M120.5 567.5L106.5 680L222 684Z" fill="#420b52" stroke="#420b52"></path><path d="M0 455L120.5 567.5L118.5 444Z" fill="#31093d" stroke="#31093d"></path><path d="M339.5 229L233 327.5L328.5 337.5Z" fill="#420b52" stroke="#420b52"></path><path d="M233 327.5L218 230L108.5 338.5Z" fill="#470c57" stroke="#470c57"></path><path d="M452 329.5L339.5 229L328.5 337.5Z" fill="#5e0f72" stroke="#5e0f72"></path><path d="M0 343.5L0 455L118.5 444Z" fill="#500d62" stroke="#500d62"></path><path d="M0 455L0 567.5L120.5 567.5Z" fill="#350a42" stroke="#350a42"></path><path d="M454 670L561.5 557.5L443 570.5Z" fill="#5e0f72" stroke="#5e0f72"></path><path d="M455 451L567.5 442L452 329.5Z" fill="#550e67" stroke="#550e67"></path><path d="M224 793.5L338.5 790.5L222 684Z" fill="#550e67" stroke="#550e67"></path><path d="M222 684L338.5 790.5L329.5 670Z" fill="#31093d" stroke="#31093d"></path><path d="M561.5 557.5L567.5 442L455 451Z" fill="#3a0a47" stroke="#3a0a47"></path><path d="M111.5 792.5L224 793.5L222 684Z" fill="#5e0f72" stroke="#5e0f72"></path><path d="M108.5 338.5L0 343.5L118.5 444Z" fill="#590e6d" stroke="#590e6d"></path><path d="M0 233L0 343.5L108.5 338.5Z" fill="#590e6d" stroke="#590e6d"></path><path d="M104.5 120.5L104.5 225L218 230Z" fill="#350a42" stroke="#350a42"></path><path d="M218 230L104.5 225L108.5 338.5Z" fill="#590e6d" stroke="#590e6d"></path><path d="M0 567.5L0 673L106.5 680Z" fill="#500d62" stroke="#500d62"></path><path d="M106.5 680L111.5 792.5L222 684Z" fill="#550e67" stroke="#550e67"></path><path d="M452 329.5L457 220L339.5 229Z" fill="#3e0b4c" stroke="#3e0b4c"></path><path d="M339.5 229L340.5 119.5L218 230Z" fill="#500d62" stroke="#500d62"></path><path d="M566.5 334.5L457 220L452 329.5Z" fill="#550e67" stroke="#550e67"></path><path d="M567.5 442L566.5 334.5L452 329.5Z" fill="#3e0b4c" stroke="#3e0b4c"></path><path d="M0 783.5L111.5 792.5L106.5 680Z" fill="#550e67" stroke="#550e67"></path><path d="M454 670L564.5 679L561.5 557.5Z" fill="#350a42" stroke="#350a42"></path><path d="M561.5 557.5L675 441L567.5 442Z" fill="#420b52" stroke="#420b52"></path><path d="M455 792.5L564.5 679L454 670Z" fill="#5e0f72" stroke="#5e0f72"></path><path d="M457 900L455 792.5L338.5 790.5Z" fill="#5e0f72" stroke="#5e0f72"></path><path d="M338.5 790.5L455 792.5L454 670Z" fill="#3a0a47" stroke="#3a0a47"></path><path d="M104.5 225L0 233L108.5 338.5Z" fill="#31093d" stroke="#31093d"></path><path d="M457 220L340.5 119.5L339.5 229Z" fill="#3e0b4c" stroke="#3e0b4c"></path><path d="M104.5 225L0 118.5L0 233Z" fill="#500d62" stroke="#500d62"></path><path d="M0 673L0 783.5L106.5 680Z" fill="#350a42" stroke="#350a42"></path><path d="M340.5 119.5L215 109.5L218 230Z" fill="#3a0a47" stroke="#3a0a47"></path><path d="M109.5 900L224 793.5L111.5 792.5Z" fill="#470c57" stroke="#470c57"></path><path d="M109.5 900L233 900L224 793.5Z" fill="#550e67" stroke="#550e67"></path><path d="M224 793.5L233 900L338.5 790.5Z" fill="#470c57" stroke="#470c57"></path><path d="M675 565.5L675 441L561.5 557.5Z" fill="#4b0d5c" stroke="#4b0d5c"></path><path d="M567.5 442L675 441L566.5 334.5Z" fill="#470c57" stroke="#470c57"></path><path d="M566.5 334.5L563.5 215L457 220Z" fill="#3e0b4c" stroke="#3e0b4c"></path><path d="M233 900L332.5 900L338.5 790.5Z" fill="#420b52" stroke="#420b52"></path><path d="M675 671L675 565.5L564.5 679Z" fill="#3e0b4c" stroke="#3e0b4c"></path><path d="M564.5 679L675 565.5L561.5 557.5Z" fill="#350a42" stroke="#350a42"></path><path d="M675 233L563.5 215L566.5 334.5Z" fill="#3e0b4c" stroke="#3e0b4c"></path><path d="M457 220L441 106.5L340.5 119.5Z" fill="#3e0b4c" stroke="#3e0b4c"></path><path d="M455 792.5L569.5 788.5L564.5 679Z" fill="#31093d" stroke="#31093d"></path><path d="M457 900L569.5 788.5L455 792.5Z" fill="#3a0a47" stroke="#3a0a47"></path><path d="M215 109.5L104.5 120.5L218 230Z" fill="#350a42" stroke="#350a42"></path><path d="M567.5 120.5L441 106.5L457 220Z" fill="#420b52" stroke="#420b52"></path><path d="M340.5 119.5L229 0L215 109.5Z" fill="#4b0d5c" stroke="#4b0d5c"></path><path d="M0 900L109.5 900L111.5 792.5Z" fill="#3e0b4c" stroke="#3e0b4c"></path><path d="M675 787.5L675 671L564.5 679Z" fill="#470c57" stroke="#470c57"></path><path d="M675 441L675 328.5L566.5 334.5Z" fill="#5e0f72" stroke="#5e0f72"></path><path d="M332.5 900L457 900L338.5 790.5Z" fill="#420b52" stroke="#420b52"></path><path d="M0 0L0 118.5L104.5 120.5Z" fill="#4b0d5c" stroke="#4b0d5c"></path><path d="M104.5 120.5L0 118.5L104.5 225Z" fill="#3e0b4c" stroke="#3e0b4c"></path><path d="M563.5 215L567.5 120.5L457 220Z" fill="#4b0d5c" stroke="#4b0d5c"></path><path d="M675 119.5L567.5 120.5L563.5 215Z" fill="#500d62" stroke="#500d62"></path><path d="M675 328.5L675 233L566.5 334.5Z" fill="#420b52" stroke="#420b52"></path><path d="M0 783.5L0 900L111.5 792.5Z" fill="#3e0b4c" stroke="#3e0b4c"></path><path d="M571.5 900L675 787.5L569.5 788.5Z" fill="#590e6d" stroke="#590e6d"></path><path d="M569.5 788.5L675 787.5L564.5 679Z" fill="#3e0b4c" stroke="#3e0b4c"></path><path d="M457 900L571.5 900L569.5 788.5Z" fill="#4b0d5c" stroke="#4b0d5c"></path><path d="M337.5 0L229 0L340.5 119.5Z" fill="#4b0d5c" stroke="#4b0d5c"></path><path d="M215 109.5L110.5 0L104.5 120.5Z" fill="#550e67" stroke="#550e67"></path><path d="M337.5 0L340.5 119.5L441 106.5Z" fill="#590e6d" stroke="#590e6d"></path><path d="M453 0L337.5 0L441 106.5Z" fill="#590e6d" stroke="#590e6d"></path><path d="M229 0L110.5 0L215 109.5Z" fill="#420b52" stroke="#420b52"></path><path d="M571.5 0L453 0L567.5 120.5Z" fill="#3e0b4c" stroke="#3e0b4c"></path><path d="M567.5 120.5L453 0L441 106.5Z" fill="#3e0b4c" stroke="#3e0b4c"></path><path d="M675 233L675 119.5L563.5 215Z" fill="#500d62" stroke="#500d62"></path><path d="M571.5 900L675 900L675 787.5Z" fill="#550e67" stroke="#550e67"></path><path d="M110.5 0L0 0L104.5 120.5Z" fill="#31093d" stroke="#31093d"></path><path d="M675 119.5L571.5 0L567.5 120.5Z" fill="#590e6d" stroke="#590e6d"></path><path d="M675 119.5L675 0L571.5 0Z" fill="#3a0a47" stroke="#3a0a47"></path></g></svg>